#N canvas 449 23 690 616 12;
#N canvas 253 120 1071 513 block 0;
#X obj 107 99 swap;
#X obj 66 183 route 0;
#X obj 230 285 outlet;
#X text 223 308 pitch;
#X obj 429 357 outlet;
#X text 427 379 velocity;
#X obj 341 151 bendin;
#X text 334 124 octave = 2048 different;
#X text 333 102 neutral = 8192;
#X obj 343 292 - 8192;
#X obj 344 321 / 170.667;
#X obj 342 352 outlet;
#X text 339 380 pitchbend;
#X obj 531 127 touchin;
#X obj 108 141 pack f f f;
#X obj 152 212 unpack f f f;
#X obj 234 239 s \$0-channel;
#X obj 542 174 swap;
#X obj 545 235 route;
#X obj 580 200 r \$0-channel;
#X obj 543 201 pack;
#X obj 536 280 outlet;
#X text 537 310 aftertouch;
#X obj 343 209 swap;
#X obj 385 239 r \$0-channel;
#X obj 344 236 pack;
#X obj 343 265 route;
#X obj 98 20 notein;
#X connect 0 0 14 0;
#X connect 0 1 14 1;
#X connect 1 1 15 0;
#X connect 6 0 23 0;
#X connect 6 1 23 1;
#X connect 9 0 10 0;
#X connect 10 0 11 0;
#X connect 13 0 17 0;
#X connect 13 1 17 1;
#X connect 14 0 1 0;
#X connect 15 0 4 0;
#X connect 15 1 2 0;
#X connect 15 2 16 0;
#X connect 17 0 20 0;
#X connect 17 1 20 1;
#X connect 18 0 21 0;
#X connect 19 0 18 1;
#X connect 20 0 18 0;
#X connect 23 0 25 0;
#X connect 23 1 25 1;
#X connect 24 0 26 1;
#X connect 25 0 26 0;
#X connect 26 0 9 0;
#X connect 27 0 0 0;
#X connect 27 1 0 1;
#X connect 27 2 14 2;
#X restore 166 29 pd block;
#X obj 186 105 t b f;
#X obj 228 533 dac~;
#X obj 212 156 / 127;
#X obj 367 59 expr abs(60-$f1) / 12;
#X obj 288 424 *~;
#X obj 397 245 loadbang;
#X obj 186 64 swap;
#X obj 224 492 +~;
#X obj 320 394 dbtorms;
#X obj 320 367 + 75;
#X obj 373 119 expr 1 - $f1;
#X obj 159 424 *~;
#X obj 179 365 + 100;
#X obj 180 397 dbtorms;
#X obj 181 339 * 10;
#X obj 322 341 * 35;
#X obj 365 89 clip 0 1;
#X obj 282 315 hip~;
#X obj 131 295 lop~;
#X obj 118 209 cymbal 66 1 8000 2000 5000 10000 0.95;
#X msg 396 271 4000;
#X connect 0 0 7 0;
#X connect 0 2 7 1;
#X connect 1 0 20 0;
#X connect 1 1 3 0;
#X connect 3 0 20 2;
#X connect 4 0 17 0;
#X connect 5 0 8 1;
#X connect 6 0 21 0;
#X connect 7 0 1 0;
#X connect 7 1 4 0;
#X connect 8 0 2 0;
#X connect 8 0 2 1;
#X connect 9 0 5 1;
#X connect 10 0 9 0;
#X connect 11 0 15 0;
#X connect 12 0 8 0;
#X connect 13 0 14 0;
#X connect 14 0 12 1;
#X connect 15 0 13 0;
#X connect 16 0 10 0;
#X connect 17 0 11 0;
#X connect 17 0 16 0;
#X connect 18 0 5 0;
#X connect 19 0 12 0;
#X connect 20 0 18 0;
#X connect 20 0 19 0;
#X connect 21 0 18 1;
#X connect 21 0 19 1;
