#N canvas 169 133 913 616 12;
#N canvas 253 120 1071 513 block 0;
#X obj 107 99 swap;
#X obj 66 183 route 0;
#X obj 230 285 outlet;
#X text 223 308 pitch;
#X obj 429 357 outlet;
#X text 427 379 velocity;
#X obj 341 151 bendin;
#X text 334 124 octave = 2048 different;
#X text 333 102 neutral = 8192;
#X obj 343 292 - 8192;
#X obj 344 321 / 170.667;
#X obj 342 352 outlet;
#X text 339 380 pitchbend;
#X obj 531 127 touchin;
#X obj 108 141 pack f f f;
#X obj 152 212 unpack f f f;
#X obj 234 239 s \$0-channel;
#X obj 542 174 swap;
#X obj 545 235 route;
#X obj 580 200 r \$0-channel;
#X obj 543 201 pack;
#X obj 536 280 outlet;
#X text 537 310 aftertouch;
#X obj 343 209 swap;
#X obj 385 239 r \$0-channel;
#X obj 344 236 pack;
#X obj 343 265 route;
#X obj 98 20 notein;
#X connect 0 0 14 0;
#X connect 0 1 14 1;
#X connect 1 1 15 0;
#X connect 6 0 23 0;
#X connect 6 1 23 1;
#X connect 9 0 10 0;
#X connect 10 0 11 0;
#X connect 13 0 17 0;
#X connect 13 1 17 1;
#X connect 14 0 1 0;
#X connect 15 0 4 0;
#X connect 15 1 2 0;
#X connect 15 2 16 0;
#X connect 17 0 20 0;
#X connect 17 1 20 1;
#X connect 18 0 21 0;
#X connect 19 0 18 1;
#X connect 20 0 18 0;
#X connect 23 0 25 0;
#X connect 23 1 25 1;
#X connect 24 0 26 1;
#X connect 25 0 26 0;
#X connect 26 0 9 0;
#X connect 27 0 0 0;
#X connect 27 1 0 1;
#X connect 27 2 14 2;
#X restore 166 29 pd block;
#X obj 125 358 dac~;
#X obj 133 322 *~ 0.1;
#X obj 185 118 t b f;
#X obj 234 120 / 127;
#X obj 410 26 loadbang;
#X obj 357 110 send pdpulp_p1;
#X obj 472 112 send pdpulp_p2;
#X obj 621 123 send pdpulp_p3;
#X obj 729 123 send pdpulp_p4;
#X obj 601 161 send pdpulp_p5;
#X msg 350 75 LP;
#X msg 406 75 HP;
#X msg 453 76 duration;
#X msg 525 76 damping;
#X msg 625 75 bend;
#X obj 258 45 r LP;
#X obj 294 130 r HP;
#X obj 290 156 * 1000;
#X obj 347 151 r duration;
#X obj 464 165 r bend;
#X obj 470 186 * 2;
#X obj 471 222 - 1;
#X obj 358 207 r damping;
#X obj 354 256 + 1000;
#X obj 255 73 * 8000;
#X obj 254 99 + 100;
#X obj 136 285 steady-drum 50 1 400 0.4 0.9 50 -0.5;
#X obj 341 177 * 0.1;
#X obj 307 198 + 0.9;
#X obj 357 234 * 11000;
#X connect 0 0 3 0;
#X connect 0 1 4 0;
#X connect 2 0 1 0;
#X connect 2 0 1 1;
#X connect 3 0 27 0;
#X connect 3 1 27 1;
#X connect 4 0 27 2;
#X connect 5 0 11 0;
#X connect 5 0 12 0;
#X connect 5 0 13 0;
#X connect 5 0 14 0;
#X connect 5 0 15 0;
#X connect 11 0 6 0;
#X connect 12 0 7 0;
#X connect 13 0 8 0;
#X connect 14 0 9 0;
#X connect 15 0 10 0;
#X connect 16 0 25 0;
#X connect 17 0 18 0;
#X connect 18 0 27 4;
#X connect 19 0 28 0;
#X connect 20 0 21 0;
#X connect 21 0 22 0;
#X connect 22 0 27 7;
#X connect 23 0 30 0;
#X connect 24 0 27 6;
#X connect 25 0 26 0;
#X connect 26 0 27 3;
#X connect 27 0 2 0;
#X connect 28 0 29 0;
#X connect 29 0 27 5;
#X connect 30 0 24 0;
