#N canvas 169 133 913 616 12;
#N canvas 253 120 1071 513 block 0;
#X obj 107 99 swap;
#X obj 66 183 route 0;
#X obj 230 285 outlet;
#X text 223 308 pitch;
#X obj 429 357 outlet;
#X text 427 379 velocity;
#X obj 341 151 bendin;
#X text 334 124 octave = 2048 different;
#X text 333 102 neutral = 8192;
#X obj 343 292 - 8192;
#X obj 344 321 / 170.667;
#X obj 342 352 outlet;
#X text 339 380 pitchbend;
#X obj 531 127 touchin;
#X obj 108 141 pack f f f;
#X obj 152 212 unpack f f f;
#X obj 234 239 s \$0-channel;
#X obj 542 174 swap;
#X obj 545 235 route;
#X obj 580 200 r \$0-channel;
#X obj 543 201 pack;
#X obj 536 280 outlet;
#X text 537 310 aftertouch;
#X obj 343 209 swap;
#X obj 385 239 r \$0-channel;
#X obj 344 236 pack;
#X obj 343 265 route;
#X obj 98 20 notein;
#X connect 0 0 14 0;
#X connect 0 1 14 1;
#X connect 1 1 15 0;
#X connect 6 0 23 0;
#X connect 6 1 23 1;
#X connect 9 0 10 0;
#X connect 10 0 11 0;
#X connect 13 0 17 0;
#X connect 13 1 17 1;
#X connect 14 0 1 0;
#X connect 15 0 4 0;
#X connect 15 1 2 0;
#X connect 15 2 16 0;
#X connect 17 0 20 0;
#X connect 17 1 20 1;
#X connect 18 0 21 0;
#X connect 19 0 18 1;
#X connect 20 0 18 0;
#X connect 23 0 25 0;
#X connect 23 1 25 1;
#X connect 24 0 26 1;
#X connect 25 0 26 0;
#X connect 26 0 9 0;
#X connect 27 0 0 0;
#X connect 27 1 0 1;
#X connect 27 2 14 2;
#X restore 166 29 pd block;
#X obj 124 434 dac~;
#X obj 132 398 *~ 0.1;
#X obj 195 267 / 127;
#X obj 410 26 loadbang;
#X obj 347 110 send pdpulp_p1;
#X obj 472 112 send pdpulp_p2;
#X obj 621 123 send pdpulp_p3;
#X obj 729 123 send pdpulp_p4;
#X obj 599 152 send pdpulp_p5;
#X msg 350 75 LP;
#X msg 406 75 HP;
#X msg 453 76 duration;
#X msg 525 76 damping;
#X msg 625 75 bend;
#X text 289 160 treble;
#X obj 579 220 expr pow(2 \, $f1 * 10)/8;
#X obj 293 181 r LP;
#X obj 290 209 * 8000;
#X obj 281 237 + 100;
#X obj 392 189 r HP;
#X obj 388 215 * 1000;
#X text 389 170 bass;
#X obj 482 168 r duration;
#X obj 582 186 r damping;
#X obj 784 165 r bend;
#X obj 783 190 * 2;
#X obj 783 217 - 1;
#X obj 142 316 pack f f f f f f f f;
#X obj 153 205 pack;
#X obj 143 277 - 1;
#X obj 136 358 clone steady-drum3 16;
#X obj 145 237 poly 16 1;
#X obj 482 195 * 0.05;
#X obj 485 218 + 0.95;
#X connect 0 0 29 0;
#X connect 0 2 29 1;
#X connect 2 0 1 0;
#X connect 2 0 1 1;
#X connect 3 0 28 2;
#X connect 4 0 10 0;
#X connect 4 0 11 0;
#X connect 4 0 12 0;
#X connect 4 0 13 0;
#X connect 4 0 14 0;
#X connect 10 0 5 0;
#X connect 11 0 6 0;
#X connect 12 0 7 0;
#X connect 13 0 8 0;
#X connect 14 0 9 0;
#X connect 16 0 28 6;
#X connect 17 0 18 0;
#X connect 18 0 19 0;
#X connect 19 0 28 3;
#X connect 20 0 21 0;
#X connect 21 0 28 4;
#X connect 23 0 33 0;
#X connect 24 0 16 0;
#X connect 25 0 26 0;
#X connect 26 0 27 0;
#X connect 27 0 28 7;
#X connect 28 0 31 0;
#X connect 29 0 32 0;
#X connect 30 0 28 0;
#X connect 31 0 2 0;
#X connect 32 0 30 0;
#X connect 32 1 28 1;
#X connect 32 2 3 0;
#X connect 33 0 34 0;
#X connect 34 0 28 5;
