#N canvas 123 32 1317 537 12;
#N canvas 253 120 1071 513 block 0;
#X obj 107 99 swap;
#X obj 66 183 route 0;
#X obj 230 285 outlet;
#X obj 79 457 outlet;
#X obj 76 387 t b;
#X msg 76 412 0;
#X msg 151 270 1;
#X text 76 476 on/off;
#X text 223 308 pitch;
#X obj 77 250 t f f;
#X obj 151 242 t b f;
#X obj 429 354 outlet;
#X text 427 379 velocity;
#X obj 341 151 bendin;
#X text 334 124 octave = 2048 different;
#X text 333 102 neutral = 8192;
#X obj 343 292 - 8192;
#X obj 344 321 / 170.667;
#X obj 342 352 outlet;
#X text 339 380 pitchbend;
#X obj 531 127 touchin;
#X obj 108 141 pack f f f;
#X obj 152 215 unpack f f f;
#X obj 259 254 s \$0-channel;
#X obj 542 174 swap;
#X obj 545 235 route;
#X obj 580 200 r \$0-channel;
#X obj 543 201 pack;
#X obj 536 280 outlet;
#X text 537 310 aftertouch;
#X obj 343 209 swap;
#X obj 385 239 r \$0-channel;
#X obj 344 236 pack;
#X obj 343 265 route;
#X obj 65 216 unpack f f;
#X obj 198 243 t f f f;
#N canvas 0 23 450 300 filter-note-off 0;
#X obj 116 73 inlet;
#X obj 171 74 inlet;
#X obj 228 72 inlet;
#X obj 283 73 inlet;
#X obj 54 143 expr !(($f1 != $f2) | (($f1 == $f2) && ($f3 != $f4)))
;
#X obj 63 171 outlet;
#X text 87 29 blocked if (not the same note) or (the same note and
different channels);
#X connect 0 0 4 0;
#X connect 1 0 4 1;
#X connect 2 0 4 2;
#X connect 3 0 4 3;
#X connect 4 0 5 0;
#X restore 105 331 pd filter-note-off;
#X obj 256 219 t f f;
#X obj 98 20 notein;
#X obj 76 364 gate;
#X connect 0 0 21 0;
#X connect 0 1 21 1;
#X connect 1 0 34 0;
#X connect 1 1 22 0;
#X connect 4 0 5 0;
#X connect 5 0 3 0;
#X connect 6 0 3 0;
#X connect 9 0 39 0;
#X connect 9 1 36 0;
#X connect 10 0 6 0;
#X connect 10 1 11 0;
#X connect 13 0 30 0;
#X connect 13 1 30 1;
#X connect 16 0 17 0;
#X connect 17 0 18 0;
#X connect 20 0 24 0;
#X connect 20 1 24 1;
#X connect 21 0 1 0;
#X connect 22 0 10 0;
#X connect 22 1 35 0;
#X connect 22 2 37 0;
#X connect 24 0 27 0;
#X connect 24 1 27 1;
#X connect 25 0 28 0;
#X connect 26 0 25 1;
#X connect 27 0 25 0;
#X connect 30 0 32 0;
#X connect 30 1 32 1;
#X connect 31 0 33 1;
#X connect 32 0 33 0;
#X connect 33 0 16 0;
#X connect 34 0 9 0;
#X connect 34 1 36 2;
#X connect 35 1 36 1;
#X connect 35 2 2 0;
#X connect 36 0 39 1;
#X connect 37 0 36 3;
#X connect 37 1 23 0;
#X connect 38 0 0 0;
#X connect 38 1 0 1;
#X connect 38 2 21 2;
#X connect 39 0 4 0;
#X restore 150 69 pd block;
#X obj 223 144 / 127;
#X obj 276 144 / 127;
#X obj 236 502 dac~;
#X obj 170 326 loadbang;
#X obj 169 386 mtof;
#X obj 136 424 bp~ 1000 2;
#X obj 140 277 string-instrument 63 1 10 10 2000 600 1 0.5 9000 0;
#X msg 170 358 94;
#X obj 758 90 loadbang;
#X obj 730 187 send pdpulp_p1;
#X obj 860 189 send pdpulp_p2;
#X obj 969 187 send pdpulp_p3;
#X obj 1077 187 send pdpulp_p4;
#X obj 786 220 send pdpulp_p5;
#X obj 894 220 send pdpulp_p6;
#X obj 1003 218 send pdpulp_p7;
#X obj 346 152 * 1000;
#X obj 436 151 * 1000;
#X obj 381 91 r decay;
#X msg 798 140 decay;
#X obj 332 91 r attack;
#X msg 742 140 attack;
#X obj 456 91 r LP;
#X obj 505 91 r HP;
#X msg 845 141 LP;
#X msg 885 141 HP;
#X obj 561 154 * 1000;
#X obj 452 177 + 1000;
#X obj 495 154 * 7000;
#X obj 573 242 * 7000;
#X obj 571 281 + 1000;
#X obj 1113 218 send pdpulp_p8;
#X obj 650 170 * 2;
#X obj 657 201 - 1;
#X msg 1068 142 scatter;
#X obj 663 127 r scatter;
#X obj 672 91 r damping;
#X msg 1002 142 damping;
#X msg 962 311 formant;
#X msg 1059 312 resonance;
#X obj 407 371 r formant;
#X obj 408 399 * 40;
#X obj 534 403 r resonance;
#X obj 543 446 * 4;
#X obj 542 475 + 1;
#X obj 408 430 + 72;
#X obj 590 112 r legato;
#X msg 964 141 legato;
#X msg 924 141 air;
#X obj 556 79 r air;
#X obj 962 387 send pdpulp_p9;
#X obj 1073 387 send pdpulp_p10;
#X obj 547 104 * 0.1;
#X obj 551 130 + 0.9;
#X connect 0 0 7 0;
#X connect 0 1 7 1;
#X connect 0 2 7 2;
#X connect 0 3 1 0;
#X connect 0 4 2 0;
#X connect 1 0 7 3;
#X connect 2 0 7 4;
#X connect 4 0 8 0;
#X connect 5 0 6 1;
#X connect 6 0 3 0;
#X connect 6 0 3 1;
#X connect 7 0 6 0;
#X connect 8 0 5 0;
#X connect 9 0 22 0;
#X connect 9 0 20 0;
#X connect 9 0 25 0;
#X connect 9 0 26 0;
#X connect 9 0 49 0;
#X connect 9 0 48 0;
#X connect 9 0 38 0;
#X connect 9 0 35 0;
#X connect 9 0 39 0;
#X connect 9 0 40 0;
#X connect 17 0 7 5;
#X connect 18 0 7 6;
#X connect 19 0 18 0;
#X connect 20 0 11 0;
#X connect 21 0 17 0;
#X connect 22 0 10 0;
#X connect 23 0 29 0;
#X connect 24 0 27 0;
#X connect 25 0 12 0;
#X connect 26 0 13 0;
#X connect 27 0 7 8;
#X connect 28 0 7 7;
#X connect 29 0 28 0;
#X connect 30 0 31 0;
#X connect 31 0 7 11;
#X connect 33 0 34 0;
#X connect 34 0 7 12;
#X connect 35 0 32 0;
#X connect 36 0 33 0;
#X connect 37 0 30 0;
#X connect 38 0 16 0;
#X connect 39 0 51 0;
#X connect 40 0 52 0;
#X connect 41 0 42 0;
#X connect 42 0 46 0;
#X connect 43 0 44 0;
#X connect 44 0 45 0;
#X connect 45 0 6 2;
#X connect 46 0 5 0;
#X connect 47 0 7 10;
#X connect 48 0 15 0;
#X connect 49 0 14 0;
#X connect 50 0 53 0;
#X connect 53 0 54 0;
#X connect 54 0 7 9;
