#N canvas 100 25 1340 751 12;
#X obj 172 91 notein;
#X floatatom 165 134 5 0 0 0 - - -;
#X floatatom 211 134 5 0 0 0 - - -;
#X floatatom 262 135 5 0 0 0 - - -;
#X obj 338 87 bendin;
#X floatatom 333 175 5 0 0 0 - - -;
#X floatatom 382 178 5 0 0 0 - - -;
#X obj 458 88 touchin;
#X floatatom 450 179 5 0 0 0 - - -;
#X floatatom 504 179 5 0 0 0 - - -;
#X obj 166 199 swap;
#X obj 212 165 swap;
#X floatatom 165 246 5 0 0 0 - - -;
#X floatatom 214 246 5 0 0 0 - - -;
#X floatatom 267 250 5 0 0 0 - - -;
#X obj 338 130 swap;
#X obj 457 129 swap;
#X obj 184 895 dac~;
#X obj 267 281 / 127;
#X obj 374 209 - 8192;
#X obj 370 240 / 170.667;
#X obj 502 209 / 127;
#X obj 162 271 - 1;
#X obj 332 206 - 1;
#X obj 449 207 - 1;
#X obj 184 859 *~ 0.1;
#X obj 185 819 clone aux/strings-poly-touch-aux2 16;
#X obj 160 448 pack f f f;
#X obj 261 439 pack f f f;
#X msg 291 407 1;
#X obj 378 442 pack f f f;
#X obj 163 312 t f f;
#X obj 481 438 pack f f f;
#X msg 409 408 2;
#X msg 511 403 3;
#X obj 479 369 t f b;
#X obj 375 373 t f b;
#X obj 257 370 t f b;
#X obj 160 378 t f b;
#X msg 189 412 0;
#X obj 171 555 route 0 1 2 3;
#X obj 171 588 t b f;
#X obj 219 587 t b f;
#X obj 268 586 t b f;
#X obj 316 587 t b f;
#X obj 510 557 route 0 1 2 3;
#X obj 509 589 t b f;
#X obj 556 591 t b f;
#X obj 606 589 t b f;
#X obj 654 592 t b f;
#X obj 865 561 route 0 1 2 3;
#X obj 866 593 t b f;
#X obj 914 592 t b f;
#X obj 963 591 t b f;
#X obj 1011 592 t b f;
#X obj 1203 562 route 0 1 2 3;
#X obj 1204 594 t b f;
#X obj 1252 593 t b f;
#X obj 1301 592 t b f;
#X obj 1349 593 t b f;
#X obj 239 674 route 0 1 2 3;
#X obj 240 706 t b f;
#X obj 288 705 t b f;
#X obj 336 703 t b f;
#X obj 391 703 t b f;
#X obj 577 675 route 0 1 2 3;
#X obj 578 707 t b f;
#X obj 626 706 t b f;
#X obj 675 705 t b f;
#X obj 723 706 t b f;
#X obj 934 679 route 0 1 2 3;
#X obj 935 711 t b f;
#X obj 983 710 t b f;
#X obj 1032 709 t b f;
#X obj 1080 710 t b f;
#X obj 1272 680 route 0 1 2 3;
#X obj 1273 712 t b f;
#X obj 1273 751 pack 7 f f f f f 10 10 2000 600 1 0.5 9000 0;
#X obj 172 510 route 0 1 2 3 4 5 6 7 8 9 10 11 12 13 14 15;
#X obj 172 630 pack 0 f f f f 10 10 2000 600 1 0.5 9000 0;
#X obj 509 628 pack 1 f f f f 10 10 2000 600 1 0.5 9000 0;
#X obj 866 632 pack 2 f f f f 10 10 2000 600 1 0.5 9000 0;
#X obj 1204 633 pack 3 f f f f 10 10 2000 600 1 0.5 9000 0;
#X obj 240 745 pack 4 f f f f 10 10 2000 600 1 0.5 9000 0;
#X obj 577 746 pack 5 f f f f 10 10 2000 600 1 0.5 9000 0;
#X obj 935 750 pack 6 f f f f 10 10 2000 600 1 0.5 9000 0;
#X connect 0 0 1 0;
#X connect 0 1 2 0;
#X connect 0 2 3 0;
#X connect 1 0 10 0;
#X connect 2 0 11 0;
#X connect 3 0 11 1;
#X connect 4 0 15 0;
#X connect 4 1 15 1;
#X connect 5 0 23 0;
#X connect 6 0 19 0;
#X connect 7 0 16 0;
#X connect 7 1 16 1;
#X connect 8 0 24 0;
#X connect 9 0 21 0;
#X connect 10 0 12 0;
#X connect 10 1 13 0;
#X connect 11 0 10 1;
#X connect 11 1 14 0;
#X connect 12 0 22 0;
#X connect 13 0 27 2;
#X connect 14 0 18 0;
#X connect 15 0 5 0;
#X connect 15 1 6 0;
#X connect 16 0 8 0;
#X connect 16 1 9 0;
#X connect 18 0 28 2;
#X connect 19 0 20 0;
#X connect 20 0 30 2;
#X connect 21 0 32 2;
#X connect 22 0 31 0;
#X connect 23 0 36 0;
#X connect 24 0 35 0;
#X connect 25 0 17 0;
#X connect 25 0 17 1;
#X connect 26 0 25 0;
#X connect 27 0 78 0;
#X connect 28 0 78 0;
#X connect 29 0 28 1;
#X connect 30 0 78 0;
#X connect 31 0 38 0;
#X connect 31 1 37 0;
#X connect 32 0 78 0;
#X connect 33 0 30 1;
#X connect 34 0 32 1;
#X connect 35 0 32 0;
#X connect 35 1 34 0;
#X connect 36 0 30 0;
#X connect 36 1 33 0;
#X connect 37 0 28 0;
#X connect 37 1 29 0;
#X connect 38 0 27 0;
#X connect 38 1 39 0;
#X connect 39 0 27 1;
#X connect 40 0 41 0;
#X connect 40 1 42 0;
#X connect 40 2 43 0;
#X connect 40 3 44 0;
#X connect 41 0 79 0;
#X connect 41 1 79 1;
#X connect 42 0 79 0;
#X connect 42 1 79 3;
#X connect 43 0 79 0;
#X connect 43 1 79 2;
#X connect 44 0 79 0;
#X connect 44 1 79 4;
#X connect 45 0 46 0;
#X connect 45 1 47 0;
#X connect 45 2 48 0;
#X connect 45 3 49 0;
#X connect 46 0 80 0;
#X connect 46 1 80 1;
#X connect 47 0 80 0;
#X connect 47 1 80 3;
#X connect 48 0 80 0;
#X connect 48 1 80 2;
#X connect 49 0 80 0;
#X connect 49 1 80 4;
#X connect 50 0 51 0;
#X connect 50 1 52 0;
#X connect 50 2 53 0;
#X connect 50 3 54 0;
#X connect 51 0 81 0;
#X connect 51 1 81 1;
#X connect 52 0 81 0;
#X connect 52 1 81 3;
#X connect 53 0 81 0;
#X connect 53 1 81 2;
#X connect 54 0 81 0;
#X connect 54 1 81 4;
#X connect 55 0 56 0;
#X connect 55 1 57 0;
#X connect 55 2 58 0;
#X connect 55 3 59 0;
#X connect 56 0 82 0;
#X connect 56 1 82 1;
#X connect 57 0 82 0;
#X connect 57 1 82 3;
#X connect 58 0 82 0;
#X connect 58 1 82 2;
#X connect 59 0 82 0;
#X connect 59 1 82 4;
#X connect 60 0 61 0;
#X connect 60 1 62 0;
#X connect 60 2 63 0;
#X connect 60 3 64 0;
#X connect 61 0 83 0;
#X connect 61 1 83 1;
#X connect 62 0 83 0;
#X connect 62 1 83 3;
#X connect 63 0 83 0;
#X connect 63 1 83 2;
#X connect 64 0 83 0;
#X connect 64 1 83 4;
#X connect 65 0 66 0;
#X connect 65 1 67 0;
#X connect 65 2 68 0;
#X connect 65 3 69 0;
#X connect 66 0 84 0;
#X connect 66 1 84 1;
#X connect 67 0 84 0;
#X connect 67 1 84 3;
#X connect 68 0 84 0;
#X connect 68 1 84 2;
#X connect 69 0 84 0;
#X connect 69 1 84 4;
#X connect 70 0 71 0;
#X connect 70 1 72 0;
#X connect 70 2 73 0;
#X connect 70 3 74 0;
#X connect 71 0 85 0;
#X connect 71 1 85 1;
#X connect 72 0 85 0;
#X connect 72 1 85 3;
#X connect 73 0 85 0;
#X connect 73 1 85 2;
#X connect 74 0 85 0;
#X connect 74 1 85 4;
#X connect 75 0 76 0;
#X connect 76 0 77 0;
#X connect 76 1 77 1;
#X connect 77 0 26 0;
#X connect 78 0 40 0;
#X connect 78 1 45 0;
#X connect 78 2 50 0;
#X connect 78 3 55 0;
#X connect 78 4 60 0;
#X connect 78 5 65 0;
#X connect 78 6 70 0;
#X connect 78 7 75 0;
#X connect 79 0 26 0;
#X connect 80 0 26 0;
#X connect 81 0 26 0;
#X connect 82 0 26 0;
#X connect 83 0 26 0;
#X connect 84 0 26 0;
#X connect 85 0 26 0;
