#N canvas 123 32 1317 537 12;
#X obj 236 502 dac~;
#X obj 170 326 loadbang;
#X obj 169 386 mtof;
#X obj 136 424 bp~ 1000 2;
#X msg 170 358 94;
#X obj 758 90 loadbang;
#X obj 730 187 send pdpulp_p1;
#X obj 860 189 send pdpulp_p2;
#X obj 969 187 send pdpulp_p3;
#X obj 1077 187 send pdpulp_p4;
#X obj 786 220 send pdpulp_p5;
#X obj 894 220 send pdpulp_p6;
#X obj 1003 218 send pdpulp_p7;
#X obj 183 101 * 1000;
#X obj 261 87 * 1000;
#X obj 263 56 r decay;
#X msg 798 140 decay;
#X obj 189 70 r attack;
#X msg 742 140 attack;
#X obj 335 56 r LP;
#X obj 401 52 r HP;
#X msg 845 141 LP;
#X msg 885 141 HP;
#X obj 399 90 * 1000;
#X obj 328 118 + 1000;
#X obj 329 90 * 7000;
#X obj 648 70 * 7000;
#X obj 648 102 + 1000;
#X obj 1113 218 send pdpulp_p8;
#X obj 664 167 * 2;
#X obj 664 194 - 1;
#X msg 1091 141 scatter;
#X obj 663 135 r scatter;
#X obj 649 41 r damping;
#X msg 1025 141 damping;
#X msg 962 311 formant;
#X msg 1059 312 resonance;
#X obj 407 371 r formant;
#X obj 408 399 * 40;
#X obj 534 403 r resonance;
#X obj 543 446 * 4;
#X obj 542 475 + 1;
#X obj 408 430 + 72;
#X obj 563 67 r legato;
#X msg 964 141 legato;
#X msg 924 141 air;
#X obj 476 50 r air;
#X obj 962 387 send pdpulp_p9;
#X obj 1073 387 send pdpulp_p10;
#X obj 135 195 / 127;
#X obj 48 194 - 1;
#X obj 88 297 clone string-instrument2 16;
#X obj 64 149 poly 16 0;
#X obj 69 113 notein;
#X obj 83 250 pack f f f f f f f f f f f;
#X obj 138 461 *~ 0.1;
#X obj 470 78 * 0.05;
#X obj 474 104 + 0.95;
#X connect 1 0 4 0;
#X connect 2 0 3 1;
#X connect 3 0 55 0;
#X connect 4 0 2 0;
#X connect 5 0 18 0;
#X connect 5 0 16 0;
#X connect 5 0 21 0;
#X connect 5 0 22 0;
#X connect 5 0 45 0;
#X connect 5 0 44 0;
#X connect 5 0 34 0;
#X connect 5 0 31 0;
#X connect 5 0 35 0;
#X connect 5 0 36 0;
#X connect 13 0 54 3;
#X connect 14 0 54 4;
#X connect 15 0 14 0;
#X connect 16 0 7 0;
#X connect 17 0 13 0;
#X connect 18 0 6 0;
#X connect 19 0 25 0;
#X connect 20 0 23 0;
#X connect 21 0 8 0;
#X connect 22 0 9 0;
#X connect 23 0 54 6;
#X connect 24 0 54 5;
#X connect 25 0 24 0;
#X connect 26 0 27 0;
#X connect 27 0 54 9;
#X connect 29 0 30 0;
#X connect 30 0 54 10;
#X connect 31 0 28 0;
#X connect 32 0 29 0;
#X connect 33 0 26 0;
#X connect 34 0 12 0;
#X connect 35 0 47 0;
#X connect 36 0 48 0;
#X connect 37 0 38 0;
#X connect 38 0 42 0;
#X connect 39 0 40 0;
#X connect 40 0 41 0;
#X connect 41 0 3 2;
#X connect 42 0 2 0;
#X connect 43 0 54 8;
#X connect 44 0 11 0;
#X connect 45 0 10 0;
#X connect 46 0 56 0;
#X connect 49 0 54 2;
#X connect 50 0 54 0;
#X connect 51 0 3 0;
#X connect 52 0 50 0;
#X connect 52 1 54 1;
#X connect 52 2 49 0;
#X connect 53 0 52 0;
#X connect 53 1 52 1;
#X connect 54 0 51 0;
#X connect 55 0 0 0;
#X connect 55 0 0 1;
#X connect 56 0 57 0;
#X connect 57 0 54 7;
