#N canvas 106 129 980 573 12;
#X obj 172 91 notein;
#X floatatom 165 134 5 0 0 0 - - -;
#X floatatom 211 134 5 0 0 0 - - -;
#X floatatom 262 135 5 0 0 0 - - -;
#X obj 338 87 bendin;
#X floatatom 333 175 5 0 0 0 - - -;
#X floatatom 382 178 5 0 0 0 - - -;
#X obj 458 88 touchin;
#X floatatom 450 179 5 0 0 0 - - -;
#X floatatom 504 179 5 0 0 0 - - -;
#X obj 166 199 swap;
#X obj 212 165 swap;
#X floatatom 165 246 5 0 0 0 - - -;
#X floatatom 214 246 5 0 0 0 - - -;
#X floatatom 267 250 5 0 0 0 - - -;
#X obj 338 130 swap;
#X obj 457 129 swap;
#X obj 151 533 dac~;
#X obj 267 281 / 127;
#X obj 374 209 - 8192;
#X obj 370 240 / 170.667;
#X obj 502 209 / 127;
#X obj 162 271 - 1;
#X obj 332 206 - 1;
#X obj 449 207 - 1;
#X obj 151 497 *~ 0.1;
#X obj 154 410 pack f f f f 10 10 2000 600 1 0.5 9000 0;
#X obj 357 274 t b f;
#X obj 500 239 t b f;
#X obj 153 457 aux/strings-poly-touch-aux2;
#X connect 0 0 1 0;
#X connect 0 1 2 0;
#X connect 0 2 3 0;
#X connect 1 0 10 0;
#X connect 2 0 11 0;
#X connect 3 0 11 1;
#X connect 4 0 15 0;
#X connect 4 1 15 1;
#X connect 5 0 23 0;
#X connect 6 0 19 0;
#X connect 7 0 16 0;
#X connect 7 1 16 1;
#X connect 8 0 24 0;
#X connect 9 0 21 0;
#X connect 10 0 12 0;
#X connect 10 1 13 0;
#X connect 11 0 10 1;
#X connect 11 1 14 0;
#X connect 12 0 22 0;
#X connect 13 0 26 0;
#X connect 14 0 18 0;
#X connect 15 0 5 0;
#X connect 15 1 6 0;
#X connect 16 0 8 0;
#X connect 16 1 9 0;
#X connect 18 0 26 2;
#X connect 19 0 20 0;
#X connect 20 0 27 0;
#X connect 21 0 28 0;
#X connect 25 0 17 0;
#X connect 25 0 17 1;
#X connect 26 0 29 0;
#X connect 27 0 26 0;
#X connect 27 1 26 1;
#X connect 28 0 26 0;
#X connect 28 1 26 3;
#X connect 29 0 25 0;
