#N canvas 0 25 1440 752 12;
#X obj 129 35 inlet;
#X obj 131 416 outlet~;
#X obj 523 33 inlet;
#X obj 126 111 clip 0 127;
#N canvas 357 257 735 410 excite 1;
#X obj 200 52 inlet;
#X obj 499 41 inlet;
#X obj 193 359 outlet~;
#X msg 211 186 0;
#X obj 390 53 inlet;
#X text 387 29 lop cutoff;
#X obj 208 216 line~;
#X obj 211 155 delay 5;
#X obj 201 80 t b b;
#X text 196 31 bang;
#X obj 309 42 inlet;
#X text 300 16 velocity;
#X obj 253 102 f;
#X obj 198 281 lop~ 2000;
#X text 509 21 hip;
#X obj 195 308 hip~ 1000;
#X obj 143 255 *~;
#X obj 118 223 noise~;
#X obj 203 252 +~;
#X connect 0 0 8 0;
#X connect 1 0 15 1;
#X connect 3 0 6 0;
#X connect 4 0 13 1;
#X connect 6 0 18 1;
#X connect 6 0 16 1;
#X connect 7 0 3 0;
#X connect 8 0 7 0;
#X connect 8 1 12 0;
#X connect 10 0 12 1;
#X connect 12 0 6 0;
#X connect 13 0 15 0;
#X connect 15 0 2 0;
#X connect 16 0 18 0;
#X connect 17 0 16 0;
#X connect 18 0 13 0;
#X restore 196 204 pd excite;
#N canvas 741 23 699 413 scatter 0;
#X obj 87 37 inlet~;
#X obj 198 39 inlet~;
#X obj 15 146 outlet~;
#X obj 283 149 outlet~;
#X obj 15 116 expr~ ($v1 * (1 - $v3)) + ($v2 * $v3);
#X obj 283 114 expr~ ($v1 * (1 + $v3)) + ($v2 * ($v3 * -1));
#X obj 310 39 inlet~;
#X obj 310 67 clip~ -0.5 0.5;
#X connect 0 0 4 0;
#X connect 0 0 5 1;
#X connect 1 0 5 0;
#X connect 1 0 4 1;
#X connect 4 0 2 0;
#X connect 5 0 3 0;
#X connect 6 0 7 0;
#X connect 7 0 4 2;
#X connect 7 0 5 2;
#X restore 194 333 pd scatter;
#X obj 194 286 +~;
#X obj 287 286 +~;
#X obj 131 360 +~;
#N canvas 0 22 450 300 hztoms~ 0;
#X obj 145 134 outlet~;
#X obj 130 105 /~;
#X msg 88 60 1000;
#X obj 86 98 sig~;
#X obj 86 37 loadbang;
#X obj 180 18 inlet;
#X obj 163 80 line~;
#X obj 163 58 pack f 5;
#X connect 1 0 0 0;
#X connect 2 0 3 0;
#X connect 3 0 1 0;
#X connect 4 0 2 0;
#X connect 5 0 7 0;
#X connect 6 0 1 1;
#X connect 7 0 6 0;
#X restore 127 163 pd hztoms~;
#X obj 126 137 mtof;
#X obj 194 442 *~ -1;
#X obj 198 383 *~ 0.99;
#X obj 316 414 lop~ 3000;
#X obj 195 416 lop~ 3000;
#X obj 805 26 inlet;
#X obj 193 471 delwrite~ a-\$0 2000;
#X obj 316 444 delwrite~ b-\$0 2000;
#X obj 209 262 delread4~ b-\$0;
#X obj 328 261 delread4~ a-\$0;
#X text 1074 10 bend;
#X obj 380 386 f;
#X obj 647 29 inlet;
#X obj 311 383 *~ 0.99;
#X obj 405 33 inlet;
#X text 514 11 bass;
#X text 404 12 treble;
#X obj 1070 32 inlet;
#X obj 337 6 loadbang;
#X obj 571 6 loadbang;
#X obj 720 4 loadbang;
#X obj 848 26 loadbang;
#X obj 1128 4 loadbang;
#X obj 45 32 inlet;
#X text 40 6 bang;
#X obj 173 36 \$1;
#X obj 376 34 \$3;
#X obj 570 31 \$4;
#X obj 716 30 \$5;
#X obj 849 52 \$6;
#X obj 1124 30 \$7;
#X obj 255 34 inlet;
#X obj 251 87 clip 0 1;
#X obj 309 33 \$2;
#X text 260 6 velocity;
#X text 119 12 pitch;
#X obj 129 73 t f f;
#X text 637 7 duration;
#N canvas 455 25 450 300 bang-duration 0;
#X obj 104 46 inlet;
#X obj 262 48 inlet;
#X obj 103 99 f;
#X obj 100 187 delay;
#X msg 142 163 stop;
#X obj 101 135 t b f b b;
#X msg 162 206 1;
#X msg 101 214 0;
#X obj 101 240 f;
#X text 102 23 bang;
#X text 262 23 duration;
#X obj 103 271 outlet;
#X connect 0 0 2 0;
#X connect 1 0 2 1;
#X connect 2 0 5 0;
#X connect 3 0 7 0;
#X connect 4 0 3 0;
#X connect 5 0 3 0;
#X connect 5 1 3 1;
#X connect 5 2 4 0;
#X connect 5 3 6 0;
#X connect 6 0 8 0;
#X connect 7 0 8 0;
#X connect 8 0 11 0;
#X restore 32 255 pd bang-duration;
#X obj 44 67 t b b;
#X obj 29 319 block~ 8;
#X obj 647 65 clip 0 1;
#X text 801 5 slope;
#X obj 937 22 inlet;
#X text 933 0 constant;
#X obj 787 182 *;
#X obj 794 130 t b f;
#X obj 780 215 +;
#X obj 833 171 t b f;
#X connect 0 0 46 0;
#X connect 2 0 4 3;
#X connect 3 0 10 0;
#X connect 4 0 6 0;
#X connect 4 0 7 0;
#X connect 5 0 8 0;
#X connect 5 0 12 0;
#X connect 5 1 8 1;
#X connect 5 1 23 0;
#X connect 6 0 5 0;
#X connect 7 0 5 1;
#X connect 8 0 1 0;
#X connect 9 0 18 0;
#X connect 9 0 19 0;
#X connect 10 0 9 0;
#X connect 10 0 55 0;
#X connect 11 0 16 0;
#X connect 12 0 14 0;
#X connect 13 0 17 0;
#X connect 14 0 11 0;
#X connect 15 0 56 0;
#X connect 18 0 6 1;
#X connect 19 0 7 1;
#X connect 21 0 13 1;
#X connect 21 0 14 1;
#X connect 22 0 51 0;
#X connect 23 0 13 0;
#X connect 24 0 4 2;
#X connect 27 0 5 2;
#X connect 28 0 35 0;
#X connect 28 0 36 0;
#X connect 28 0 43 0;
#X connect 29 0 37 0;
#X connect 30 0 38 0;
#X connect 31 0 39 0;
#X connect 32 0 40 0;
#X connect 33 0 49 0;
#X connect 35 0 46 0;
#X connect 36 0 4 2;
#X connect 37 0 4 3;
#X connect 38 0 51 0;
#X connect 40 0 5 2;
#X connect 41 0 42 0;
#X connect 42 0 4 1;
#X connect 43 0 42 0;
#X connect 46 0 3 0;
#X connect 49 0 4 0;
#X connect 49 1 48 0;
#X connect 51 0 23 1;
#X connect 51 0 12 1;
#X connect 53 0 58 0;
#X connect 55 0 57 0;
#X connect 56 0 55 0;
#X connect 56 1 55 1;
#X connect 57 0 21 0;
#X connect 58 0 57 0;
#X connect 58 1 57 1;
