#N canvas 213 238 1227 539 12;
#X obj 124 447 outlet~;
#X obj 119 142 clip 0 127;
#N canvas 357 257 735 410 excite 1;
#X obj 200 52 inlet;
#X obj 499 41 inlet;
#X obj 192 389 outlet~;
#X obj 390 53 inlet;
#X text 387 29 lop cutoff;
#X obj 216 216 line~;
#X obj 211 155 delay 5;
#X obj 201 80 t b b;
#X text 196 31 bang;
#X obj 309 42 inlet;
#X text 300 16 velocity;
#X obj 237 108 f;
#X obj 197 311 lop~ 2000;
#X text 509 21 hip;
#X obj 194 338 hip~ 1000;
#X obj 243 133 pack f 20;
#X msg 164 190 0 5;
#X obj 115 233 noise~;
#X obj 143 263 *~;
#X obj 205 276 +~;
#X connect 0 0 7 0;
#X connect 1 0 14 1;
#X connect 3 0 12 1;
#X connect 5 0 19 1;
#X connect 5 0 18 1;
#X connect 6 0 16 0;
#X connect 7 0 6 0;
#X connect 7 1 11 0;
#X connect 9 0 11 1;
#X connect 11 0 15 0;
#X connect 12 0 14 0;
#X connect 14 0 2 0;
#X connect 15 0 5 0;
#X connect 16 0 5 0;
#X connect 17 0 18 0;
#X connect 18 0 19 0;
#X connect 19 0 12 0;
#X restore 197 221 pd excite;
#N canvas 741 23 699 413 scatter 0;
#X obj 87 37 inlet~;
#X obj 198 39 inlet~;
#X obj 15 146 outlet~;
#X obj 283 149 outlet~;
#X obj 15 116 expr~ ($v1 * (1 - $v3)) + ($v2 * $v3);
#X obj 283 114 expr~ ($v1 * (1 + $v3)) + ($v2 * ($v3 * -1));
#X obj 310 39 inlet~;
#X obj 310 67 clip~ -0.5 0.5;
#X connect 0 0 4 0;
#X connect 0 0 5 1;
#X connect 1 0 5 0;
#X connect 1 0 4 1;
#X connect 4 0 2 0;
#X connect 5 0 3 0;
#X connect 6 0 7 0;
#X connect 7 0 4 2;
#X connect 7 0 5 2;
#X restore 187 364 pd scatter;
#X obj 187 317 +~;
#X obj 280 317 +~;
#X obj 124 391 +~;
#N canvas 0 25 450 300 hztoms~ 0;
#X obj 145 134 outlet~;
#X obj 130 105 /~;
#X msg 88 60 1000;
#X obj 86 98 sig~;
#X obj 86 37 loadbang;
#X obj 180 18 inlet;
#X obj 163 80 line~;
#X obj 163 58 pack f 5;
#X connect 1 0 0 0;
#X connect 2 0 3 0;
#X connect 3 0 1 0;
#X connect 4 0 2 0;
#X connect 5 0 7 0;
#X connect 6 0 1 1;
#X connect 7 0 6 0;
#X restore 110 219 pd hztoms~;
#X obj 118 170 mtof;
#X obj 187 473 *~ -1;
#X obj 191 414 *~ 0.99;
#X obj 309 445 lop~ 3000;
#X obj 188 447 lop~ 3000;
#X obj 186 502 delwrite~ a-\$0 2000;
#X obj 309 475 delwrite~ b-\$0 2000;
#X obj 202 293 delread4~ b-\$0;
#X obj 321 292 delread4~ a-\$0;
#X obj 304 414 *~ 0.99;
#X obj 83 71 clip 0 1;
#X obj 122 104 t f f;
#X obj 31 116 t b b;
#X obj 22 350 block~ 8;
#X obj 120 194 t f f;
#X obj 39 -7 inlet;
#X obj 33 71 t b f;
#X obj 39 22 unpack f f f f f f f f;
#X obj 388 200 *;
#X obj 391 152 t b f;
#X obj 381 233 +;
#X obj 434 189 t b f;
#X connect 1 0 8 0;
#X connect 2 0 4 0;
#X connect 2 0 5 0;
#X connect 3 0 6 0;
#X connect 3 0 10 0;
#X connect 3 1 6 1;
#X connect 3 1 17 0;
#X connect 4 0 3 0;
#X connect 5 0 3 1;
#X connect 6 0 0 0;
#X connect 7 0 15 0;
#X connect 7 0 16 0;
#X connect 8 0 22 0;
#X connect 9 0 13 0;
#X connect 10 0 12 0;
#X connect 11 0 14 0;
#X connect 12 0 9 0;
#X connect 15 0 4 1;
#X connect 16 0 5 1;
#X connect 17 0 11 0;
#X connect 18 0 2 1;
#X connect 19 0 1 0;
#X connect 20 0 2 0;
#X connect 22 0 7 0;
#X connect 22 1 26 0;
#X connect 23 0 25 0;
#X connect 24 0 20 0;
#X connect 24 1 19 0;
#X connect 25 0 24 0;
#X connect 25 1 18 0;
#X connect 25 2 2 2;
#X connect 25 3 2 3;
#X connect 25 4 17 1;
#X connect 25 4 10 1;
#X connect 25 5 27 0;
#X connect 25 6 29 0;
#X connect 25 7 3 2;
#X connect 26 0 28 0;
#X connect 27 0 26 0;
#X connect 27 1 26 1;
#X connect 28 0 11 1;
#X connect 28 0 12 1;
#X connect 29 0 28 0;
#X connect 29 1 28 1;
