#N canvas 1 32 1389 745 12;
#X obj 111 286 +~;
#N canvas 0 23 450 300 hztoms~ 0;
#X obj 145 194 outlet~;
#X obj 130 165 /~;
#X msg 88 60 1000;
#X obj 86 158 sig~;
#X obj 86 37 loadbang;
#X obj 180 18 inlet;
#X obj 163 140 line~;
#X obj 167 98 f;
#X obj 164 66 delay 5;
#X obj 177 44 t b f b;
#X msg 236 65 stop;
#X connect 1 0 0 0;
#X connect 2 0 3 0;
#X connect 3 0 1 0;
#X connect 4 0 2 0;
#X connect 5 0 9 0;
#X connect 6 0 1 1;
#X connect 7 0 6 0;
#X connect 8 0 7 0;
#X connect 9 0 8 0;
#X connect 9 1 7 1;
#X connect 9 2 10 0;
#X connect 10 0 8 0;
#X restore 254 204 pd hztoms~;
#X obj 255 167 mtof;
#X obj 106 600 *~ 0.1;
#X obj 107 690 outlet~;
#X obj 654 346 line~;
#N canvas 0 23 450 300 time 0;
#X text 114 -3 bng;
#X obj 118 166 f;
#X obj 115 81 t b b b;
#X msg 210 117 stop;
#X obj 114 19 inlet;
#X obj 119 189 outlet;
#X obj 91 115 delay 300;
#X obj 114 47 sel 0;
#X msg 170 116 1;
#X msg 90 143 0;
#X connect 1 0 5 0;
#X connect 2 0 6 0;
#X connect 2 1 8 0;
#X connect 2 2 3 0;
#X connect 3 0 6 0;
#X connect 4 0 7 0;
#X connect 6 0 9 0;
#X connect 7 1 2 0;
#X connect 8 0 1 0;
#X connect 9 0 1 0;
#X restore 648 232 pd time;
#X obj 650 265 sel 1;
#X obj 126 631 *~;
#X msg 649 293 1;
#X obj 104 546 +~;
#X obj 655 317 pack f 300;
#X text 130 0 pitch;
#X obj 727 -3 loadbang;
#X obj 654 54 max 100;
#X obj 143 237 delread4~ b-\$0;
#X obj 253 239 delread4~ a-\$0;
#X obj 142 543 delwrite~ a-\$0 2000;
#X obj 296 545 delwrite~ b-\$0 2000;
#X obj 876 -6 loadbang;
#N canvas 741 23 699 413 scatter 0;
#X obj 87 37 inlet~;
#X obj 198 39 inlet~;
#X obj 15 146 outlet~;
#X obj 283 149 outlet~;
#X obj 15 116 expr~ ($v1 * (1 - $v3)) + ($v2 * $v3);
#X obj 283 114 expr~ ($v1 * (1 + $v3)) + ($v2 * ($v3 * -1));
#X obj 310 39 inlet~;
#X obj 310 67 clip~ -0.5 0.5;
#X connect 0 0 4 0;
#X connect 0 0 5 1;
#X connect 1 0 5 0;
#X connect 1 0 4 1;
#X connect 4 0 2 0;
#X connect 5 0 3 0;
#X connect 6 0 7 0;
#X connect 7 0 4 2;
#X connect 7 0 5 2;
#X restore 139 388 pd scatter;
#X obj 142 487 *~;
#X obj 288 481 *~;
#X text 651 -1 treble;
#X text 1309 14 scatter;
#X text 727 482 use butterworth-lop~ 4000 at output for flute sound
;
#X obj 135 423 lop~ 6000;
#X obj 277 422 lop~ 6000;
#X obj 995 78 clip 0 1;
#X obj 560 371 change;
#N canvas 888 192 450 300 delay10 0;
#X obj 94 51 inlet;
#X obj 93 88 t b f;
#X obj 93 157 f;
#X obj 92 197 outlet;
#X obj 85 123 delay 10;
#X connect 0 0 1 0;
#X connect 1 0 4 0;
#X connect 1 1 2 1;
#X connect 2 0 3 0;
#X connect 4 0 2 0;
#X restore 128 68 pd delay10;
#N canvas 725 231 450 300 reduce-resonance 0;
#X obj 117 41 inlet;
#X obj 114 71 t b b;
#X obj 132 177 line~;
#X obj 133 213 outlet~;
#X obj 232 48 inlet;
#X obj 167 87 f;
#X msg 121 140 1 10;
#X obj 111 110 delay 10;
#X obj 171 112 pack f 10;
#X connect 0 0 1 0;
#X connect 1 0 7 0;
#X connect 1 1 5 0;
#X connect 2 0 3 0;
#X connect 4 0 5 1;
#X connect 5 0 8 0;
#X connect 6 0 2 0;
#X connect 7 0 6 0;
#X connect 8 0 2 0;
#X restore 560 408 pd reduce-resonance;
#X obj 152 456 *~;
#X obj 273 456 *~;
#X obj 764 261 loadbang;
#X obj 758 287 1;
#X text 494 4 attack;
#X text 977 -12 note-change feedback;
#X obj 514 56 \$3;
#X obj 1309 38 \$9;
#X text 331 8 velocity;
#X obj 333 74 clip 0 1;
#X obj 370 49 \$2;
#X text 232 12 pitchbend;
#X obj 230 120 +;
#X obj 231 88 t b f;
#X text 416 6 aftertouch;
#X obj 422 53 clip 0 1;
#N canvas 406 71 861 516 excite-patch 0;
#X obj 122 282 line~;
#X obj 124 365 *~;
#X obj 112 496 outlet~;
#X obj 227 26 inlet;
#X obj 226 55 sel 0 1;
#X obj 183 282 noise~;
#X text 232 7 on/off;
#X obj 528 24 inlet;
#X text 519 4 cutoff;
#X obj 591 20 inlet;
#X obj 110 397 +~;
#X obj 109 448 lop~;
#X obj 411 29 inlet;
#X text 412 9 attack;
#X obj 305 35 inlet;
#X obj 135 203 pack f 50;
#X obj 133 175 f;
#X text 301 7 attack velocity;
#X text 597 1 aftertouch;
#X obj 581 63 pack f 20;
#X obj 464 31 inlet;
#X text 460 7 decay;
#X obj 38 237 pack f 50;
#X msg 42 208 0;
#X connect 0 0 1 0;
#X connect 1 0 10 1;
#X connect 3 0 4 0;
#X connect 4 0 23 0;
#X connect 4 1 16 0;
#X connect 5 0 1 1;
#X connect 7 0 11 1;
#X connect 9 0 19 0;
#X connect 10 0 11 0;
#X connect 11 0 2 0;
#X connect 12 0 15 1;
#X connect 14 0 16 1;
#X connect 15 0 0 0;
#X connect 16 0 15 0;
#X connect 19 0 0 0;
#X connect 20 0 22 1;
#X connect 22 0 0 0;
#X connect 23 0 22 0;
#X restore 129 188 pd excite-patch;
#N canvas 888 192 450 300 delay10 0;
#X obj 94 51 inlet;
#X obj 93 88 t b f;
#X obj 93 157 f;
#X obj 85 123 delay 10;
#X obj 92 197 outlet;
#X connect 0 0 1 0;
#X connect 1 0 3 0;
#X connect 1 1 2 1;
#X connect 2 0 4 0;
#X connect 3 0 2 0;
#X restore 246 61 pd delay10;
#X text 575 3 decay;
#X obj 591 56 \$4;
#X obj 721 33 \$5;
#X obj 825 30 \$7;
#X obj 999 44 \$8;
#X obj 49 105 t b f f f;
#X obj 491 85 clip 0 1000;
#X obj 594 95 clip 0 1000;
#N canvas 627 345 689 383 atten 0;
#X obj 83 62 inlet~;
#X obj 212 34 inlet;
#X obj 118 247 outlet~;
#X obj 111 199 *~;
#X obj 280 32 loadbang;
#X msg 284 62 1;
#X obj 208 101 sel 0;
#X obj 188 200 line~;
#X obj 179 157 pack f 10;
#X obj 397 50 inlet;
#X msg 202 131 0;
#X obj 319 116 loadbang;
#X msg 319 147 1;
#X obj 262 125 t b;
#X msg 415 179 0;
#X connect 0 0 3 0;
#X connect 1 0 6 0;
#X connect 3 0 2 0;
#X connect 4 0 5 0;
#X connect 5 0 6 0;
#X connect 6 0 10 0;
#X connect 6 1 13 0;
#X connect 7 0 3 1;
#X connect 8 0 7 0;
#X connect 9 0 8 1;
#X connect 10 0 8 0;
#X connect 11 0 14 0;
#X connect 12 0 7 0;
#X connect 13 0 12 0;
#X connect 14 0 7 0;
#X restore 109 574 pd atten;
#X obj 51 71 change;
#X obj 24 172 sel 0;
#X obj 23 201 delay;
#X msg 23 233 0;
#X obj 50 311 switch~ 8;
#X obj 26 145 t f b;
#X msg 77 174 stop;
#X obj 29 272 tgl 15 0 empty empty empty 17 7 0 10 -262144 -1 -1 0
1;
#N canvas 627 345 689 383 atten 0;
#X obj 83 62 inlet~;
#X obj 212 34 inlet;
#X obj 118 247 outlet~;
#X obj 111 199 *~;
#X obj 280 32 loadbang;
#X msg 284 62 1;
#X obj 208 101 sel 0;
#X obj 181 203 line~;
#X obj 179 157 pack f 10;
#X obj 397 50 inlet;
#X obj 319 116 loadbang;
#X msg 202 131 0.9;
#X obj 261 125 t b b;
#X msg 332 162 0;
#X msg 268 198 1;
#X obj 261 162 delay 10;
#X connect 0 0 3 0;
#X connect 1 0 6 0;
#X connect 3 0 2 0;
#X connect 4 0 5 0;
#X connect 5 0 6 0;
#X connect 6 0 11 0;
#X connect 6 1 12 0;
#X connect 7 0 3 1;
#X connect 8 0 7 0;
#X connect 9 0 8 1;
#X connect 10 0 14 0;
#X connect 11 0 8 0;
#X connect 12 0 15 0;
#X connect 12 1 13 0;
#X connect 13 0 7 0;
#X connect 14 0 7 0;
#X connect 15 0 14 0;
#X restore 160 320 pd atten;
#N canvas 627 345 689 383 atten 0;
#X obj 83 62 inlet~;
#X obj 212 34 inlet;
#X obj 118 247 outlet~;
#X obj 111 199 *~;
#X obj 280 32 loadbang;
#X msg 284 62 1;
#X obj 208 101 sel 0;
#X obj 188 200 line~;
#X obj 179 157 pack f 10;
#X obj 397 50 inlet;
#X obj 319 116 loadbang;
#X msg 262 199 1;
#X msg 202 131 0.8;
#X obj 262 125 t b b;
#X msg 346 165 0;
#X obj 266 170 delay 10;
#X connect 0 0 3 0;
#X connect 1 0 6 0;
#X connect 3 0 2 0;
#X connect 4 0 5 0;
#X connect 5 0 6 0;
#X connect 6 0 12 0;
#X connect 6 1 13 0;
#X connect 7 0 3 1;
#X connect 8 0 7 0;
#X connect 9 0 8 1;
#X connect 10 0 11 0;
#X connect 11 0 7 0;
#X connect 12 0 8 0;
#X connect 13 0 15 0;
#X connect 13 1 14 0;
#X connect 14 0 7 0;
#X connect 15 0 11 0;
#X restore 255 321 pd atten;
#X obj 143 513 *~ -1;
#X obj 263 508 *~ -1;
#X obj 83 659 *~;
#X obj 50 387 sig~;
#X obj 143 354 *~ 0.99999;
#X obj 253 352 *~ 0.99999;
#X obj 823 59 clip -1 1;
#X obj 332 102 sel 0;
#X msg 331 132 0;
#X obj 363 127 t b;
#X msg 362 153 1;
#X obj 48 -73 inlet;
#X obj 580 -50 unpack f f f f f f f f f f f f;
#X obj 132 21 f;
#X obj 233 32 f;
#X obj 334 28 f;
#X obj 425 25 f;
#X obj 489 31 f;
#X obj 588 24 f;
#X obj 657 25 f;
#X obj 824 0 f;
#X obj 1032 15 f;
#X obj 1143 39 f;
#X obj 1342 39 f;
#X obj 134 45 0;
#X text 826 -25 air;
#X text 1130 17 slope;
#X obj 1221 39 f;
#X text 1207 14 constant;
#X obj 1152 218 *;
#X obj 1153 179 t b f;
#X obj 1156 272 +;
#X obj 1184 242 t b f;
#X connect 0 0 67 0;
#X connect 1 0 15 0;
#X connect 1 0 16 0;
#X connect 2 0 1 0;
#X connect 2 0 98 0;
#X connect 3 0 8 0;
#X connect 5 0 8 1;
#X connect 6 0 7 0;
#X connect 7 0 9 0;
#X connect 8 0 71 1;
#X connect 9 0 11 0;
#X connect 10 0 58 0;
#X connect 11 0 5 0;
#X connect 13 0 38 0;
#X connect 13 0 42 0;
#X connect 13 0 52 0;
#X connect 13 0 51 0;
#X connect 13 0 93 0;
#X connect 14 0 48 4;
#X connect 15 0 0 1;
#X connect 16 0 68 0;
#X connect 19 0 39 0;
#X connect 19 0 53 0;
#X connect 19 0 54 0;
#X connect 20 0 26 0;
#X connect 20 1 27 0;
#X connect 21 0 69 0;
#X connect 22 0 70 0;
#X connect 26 0 10 0;
#X connect 26 0 32 0;
#X connect 27 0 10 1;
#X connect 27 0 33 0;
#X connect 28 0 31 1;
#X connect 29 0 31 0;
#X connect 30 0 44 0;
#X connect 31 0 33 1;
#X connect 31 0 32 1;
#X connect 32 0 21 0;
#X connect 33 0 22 0;
#X connect 34 0 35 0;
#X connect 35 0 5 0;
#X connect 38 0 56 0;
#X connect 39 0 20 2;
#X connect 41 0 48 1;
#X connect 41 0 76 0;
#X connect 42 0 41 0;
#X connect 44 0 2 0;
#X connect 45 0 44 0;
#X connect 45 1 44 1;
#X connect 47 0 48 5;
#X connect 48 0 0 0;
#X connect 49 0 45 0;
#X connect 51 0 57 0;
#X connect 52 0 14 0;
#X connect 53 0 75 0;
#X connect 54 0 28 0;
#X connect 55 0 93 0;
#X connect 55 1 6 0;
#X connect 55 1 48 0;
#X connect 55 2 64 0;
#X connect 55 3 58 1;
#X connect 55 3 68 1;
#X connect 55 3 67 1;
#X connect 56 0 48 2;
#X connect 57 0 58 2;
#X connect 57 0 61 1;
#X connect 57 0 68 2;
#X connect 57 0 67 2;
#X connect 57 0 48 3;
#X connect 58 0 3 0;
#X connect 59 0 55 0;
#X connect 60 0 61 0;
#X connect 60 1 66 0;
#X connect 61 0 62 0;
#X connect 62 0 66 0;
#X connect 64 0 60 0;
#X connect 64 1 65 0;
#X connect 65 0 61 0;
#X connect 66 0 72 0;
#X connect 66 0 63 0;
#X connect 67 0 73 0;
#X connect 68 0 74 0;
#X connect 69 0 17 0;
#X connect 70 0 18 0;
#X connect 71 0 4 0;
#X connect 72 0 71 0;
#X connect 73 0 20 0;
#X connect 74 0 20 1;
#X connect 75 0 22 1;
#X connect 75 0 21 1;
#X connect 76 0 77 0;
#X connect 76 1 78 0;
#X connect 77 0 59 0;
#X connect 78 0 79 0;
#X connect 79 0 59 0;
#X connect 80 0 81 0;
#X connect 81 0 82 0;
#X connect 81 1 83 0;
#X connect 81 2 84 0;
#X connect 81 3 85 0;
#X connect 81 4 86 0;
#X connect 81 5 87 0;
#X connect 81 6 88 0;
#X connect 81 7 89 0;
#X connect 81 8 90 0;
#X connect 81 9 91 0;
#X connect 81 10 96 0;
#X connect 81 11 92 0;
#X connect 82 0 93 0;
#X connect 83 0 49 0;
#X connect 84 0 41 0;
#X connect 85 0 47 0;
#X connect 86 0 56 0;
#X connect 87 0 51 0;
#X connect 88 0 14 0;
#X connect 89 0 75 0;
#X connect 90 0 28 0;
#X connect 91 0 99 0;
#X connect 92 0 20 2;
#X connect 93 0 29 0;
#X connect 93 0 30 0;
#X connect 96 0 101 0;
#X connect 98 0 100 0;
#X connect 99 0 98 0;
#X connect 99 1 98 1;
#X connect 100 0 27 1;
#X connect 100 0 26 1;
#X connect 101 0 100 0;
#X connect 101 1 100 1;
