#N canvas 165 137 1275 640 12;
#X obj 78 202 route 0 1 2 3;
#X obj 78 235 t b f;
#X obj 126 234 t b f;
#X obj 175 233 t b f;
#X obj 223 234 t b f;
#X obj 311 226 * 1000;
#X obj 418 217 * 1000;
#X obj 420 186 r decay;
#X obj 317 195 r attack;
#X obj 1095 180 * 2;
#X obj 1101 204 - 1;
#X obj 1093 148 r scatter;
#X obj 681 158 r legato;
#X obj 604 142 r air;
#X obj 598 170 * 0.05;
#X obj 602 196 + 0.95;
#X obj 523 134 r LP;
#X obj 518 211 mtof;
#X obj 519 160 * 80;
#X obj 519 185 + 45;
#X obj 765 148 r slope;
#X obj 765 173 expr (pow(2 \, $f1*10)-1)/8;
#X obj 996 150 r constant;
#X obj 77 169 inlet;
#X obj 79 277 pack \$1 f f f f 10 10 2000 600 1 0.5 9000 0;
#X obj 79 314 outlet;
#X obj 997 178 * 16000;
#X obj 996 201 - 8000;
#X connect 0 0 1 0;
#X connect 0 1 2 0;
#X connect 0 2 3 0;
#X connect 0 3 4 0;
#X connect 1 0 24 0;
#X connect 1 1 24 1;
#X connect 2 0 24 0;
#X connect 2 1 24 3;
#X connect 3 0 24 0;
#X connect 3 1 24 2;
#X connect 4 0 24 0;
#X connect 4 1 24 4;
#X connect 5 0 24 5;
#X connect 6 0 24 6;
#X connect 7 0 6 0;
#X connect 8 0 5 0;
#X connect 9 0 10 0;
#X connect 10 0 24 12;
#X connect 11 0 9 0;
#X connect 12 0 24 9;
#X connect 13 0 14 0;
#X connect 14 0 15 0;
#X connect 15 0 24 8;
#X connect 16 0 18 0;
#X connect 17 0 24 7;
#X connect 18 0 19 0;
#X connect 19 0 17 0;
#X connect 20 0 21 0;
#X connect 21 0 24 10;
#X connect 22 0 26 0;
#X connect 23 0 0 0;
#X connect 24 0 25 0;
#X connect 26 0 27 0;
#X connect 27 0 24 11;
