#N canvas 169 133 1271 573 12;
#N canvas 532 122 1071 513 block 0;
#X obj 107 99 swap;
#X obj 109 181 route 0;
#X obj 230 285 outlet;
#X text 223 308 pitch;
#X obj 429 357 outlet;
#X text 427 379 velocity;
#X obj 341 151 bendin;
#X text 334 124 octave = 2048 different;
#X text 333 102 neutral = 8192;
#X obj 343 292 - 8192;
#X obj 344 321 / 170.667;
#X obj 342 352 outlet;
#X text 339 380 pitchbend;
#X obj 531 127 touchin;
#X obj 108 141 pack f f f;
#X obj 152 212 unpack f f f;
#X obj 234 239 s \$0-channel;
#X obj 542 174 swap;
#X obj 545 235 route;
#X obj 580 200 r \$0-channel;
#X obj 543 201 pack;
#X obj 536 280 outlet;
#X text 537 310 aftertouch;
#X obj 343 209 swap;
#X obj 385 239 r \$0-channel;
#X obj 344 236 pack;
#X obj 343 265 route;
#X obj 98 20 notein;
#X connect 0 0 14 0;
#X connect 0 1 14 1;
#X connect 1 1 15 0;
#X connect 6 0 23 0;
#X connect 6 1 23 1;
#X connect 9 0 10 0;
#X connect 10 0 11 0;
#X connect 13 0 17 0;
#X connect 13 1 17 1;
#X connect 14 0 1 0;
#X connect 15 0 4 0;
#X connect 15 1 2 0;
#X connect 15 2 16 0;
#X connect 17 0 20 0;
#X connect 17 1 20 1;
#X connect 18 0 21 0;
#X connect 19 0 18 1;
#X connect 20 0 18 0;
#X connect 23 0 25 0;
#X connect 23 1 25 1;
#X connect 24 0 26 1;
#X connect 25 0 26 0;
#X connect 26 0 9 0;
#X connect 27 0 0 0;
#X connect 27 1 0 1;
#X connect 27 2 14 2;
#X restore 166 29 pd block;
#X obj 124 434 dac~;
#X obj 132 398 *~ 0.1;
#X obj 201 275 / 127;
#X obj 410 26 loadbang;
#X obj 347 110 send pdpulp_p1;
#X obj 472 112 send pdpulp_p2;
#X obj 593 112 send pdpulp_p3;
#X obj 713 113 send pdpulp_p4;
#X msg 350 75 LP;
#X msg 470 77 HP;
#X msg 582 79 duration;
#X msg 978 71 bend;
#X text 249 167 treble;
#X obj 253 188 r LP;
#X obj 297 237 r HP;
#X obj 293 263 * 1000;
#X text 294 218 bass;
#X obj 350 215 r duration;
#X obj 709 218 r bend;
#X obj 708 243 * 2;
#X obj 708 270 - 1;
#X obj 145 207 pack;
#X obj 143 277 - 1;
#X obj 145 237 poly 16 1;
#X obj 350 242 * 0.05;
#X obj 353 265 + 0.95;
#X obj 136 358 clone aux/drums-poly-aux 16;
#X obj 248 265 mtof;
#X obj 249 214 * 80;
#X obj 249 239 + 45;
#X msg 669 79 slope;
#X msg 833 74 constant;
#X obj 835 109 send pdpulp_p5;
#X obj 979 105 send pdpulp_p6;
#X obj 419 243 r slope;
#X obj 419 268 expr (pow(2 \, $f1*10)-1)/8;
#X obj 617 236 r constant;
#X obj 617 264 * 8000;
#X obj 142 316 pack f f f f f f f f f;
#X msg 881 182 void;
#X obj 895 309 send pdpulp_p9;
#X obj 931 353 send pdpulp_p10;
#X obj 917 260 send pdpulp_p8;
#X obj 882 216 send pdpulp_p7;
#X obj 143 137 notein;
#X connect 2 0 1 0;
#X connect 2 0 1 1;
#X connect 3 0 39 2;
#X connect 4 0 9 0;
#X connect 4 0 10 0;
#X connect 4 0 11 0;
#X connect 4 0 31 0;
#X connect 4 0 12 0;
#X connect 4 0 32 0;
#X connect 4 0 40 0;
#X connect 9 0 5 0;
#X connect 10 0 6 0;
#X connect 11 0 7 0;
#X connect 12 0 34 0;
#X connect 14 0 29 0;
#X connect 15 0 16 0;
#X connect 16 0 39 4;
#X connect 18 0 25 0;
#X connect 19 0 20 0;
#X connect 20 0 21 0;
#X connect 21 0 39 8;
#X connect 22 0 24 0;
#X connect 23 0 39 0;
#X connect 24 0 23 0;
#X connect 24 1 39 1;
#X connect 24 2 3 0;
#X connect 25 0 26 0;
#X connect 26 0 39 5;
#X connect 27 0 2 0;
#X connect 28 0 39 3;
#X connect 29 0 30 0;
#X connect 30 0 28 0;
#X connect 31 0 8 0;
#X connect 32 0 33 0;
#X connect 35 0 36 0;
#X connect 36 0 39 6;
#X connect 37 0 38 0;
#X connect 38 0 39 7;
#X connect 39 0 27 0;
#X connect 40 0 43 0;
#X connect 40 0 44 0;
#X connect 40 0 41 0;
#X connect 40 0 42 0;
#X connect 45 0 22 0;
#X connect 45 1 22 1;
