#N canvas 522 329 641 302 12;
#X obj 63 228 dac~;
#N canvas 431 171 898 611 process 0;
#X obj 53 31 inlet~;
#X obj 786 12 block~ 4096 4;
#X obj 51 106 rfft~;
#X obj 22 338 rifft~;
#X obj 21 402 outlet~;
#X obj 95 53 tabreceive~ \$0-hann;
#X obj 54 76 *~;
#X obj 723 16 inlet;
#X obj 45 230 *~;
#X obj 90 231 *~;
#X obj 21 366 *~ 6.10351e-05;
#X obj 106 158 expr~ sqrt(pow($v1 \, 2) + pow($v2 \, 2));
#X obj 106 198 expr~ if($v1 > $f2 \, ($v1-$f2)/$v1 \, 0);
#X text 112 136 find magnitude;
#X text 102 177 equivalent to changing the magnitude to max($v1-$f2
\, 0);
#X obj 430 38 inlet~;
#X obj 428 113 rfft~;
#X obj 399 345 rifft~;
#X obj 398 409 outlet~;
#X obj 472 60 tabreceive~ \$0-hann;
#X obj 431 83 *~;
#X obj 422 237 *~;
#X obj 467 238 *~;
#X obj 398 373 *~ 6.10351e-05;
#X obj 483 165 expr~ sqrt(pow($v1 \, 2) + pow($v2 \, 2));
#X obj 483 205 expr~ if($v1 > $f2 \, ($v1-$f2)/$v1 \, 0);
#X connect 0 0 6 0;
#X connect 2 0 11 0;
#X connect 2 0 8 0;
#X connect 2 1 11 1;
#X connect 2 1 9 0;
#X connect 3 0 10 0;
#X connect 5 0 6 1;
#X connect 6 0 2 0;
#X connect 7 0 12 1;
#X connect 7 0 25 1;
#X connect 8 0 3 0;
#X connect 9 0 3 1;
#X connect 10 0 4 0;
#X connect 11 0 12 0;
#X connect 12 0 8 1;
#X connect 12 0 9 1;
#X connect 15 0 20 0;
#X connect 16 0 24 0;
#X connect 16 0 21 0;
#X connect 16 1 24 1;
#X connect 16 1 22 0;
#X connect 17 0 23 0;
#X connect 19 0 20 1;
#X connect 20 0 16 0;
#X connect 21 0 17 0;
#X connect 22 0 17 1;
#X connect 23 0 18 0;
#X connect 24 0 25 0;
#X connect 25 0 21 1;
#X connect 25 0 22 1;
#X restore 69 177 pd process;
#N canvas 624 107 816 455 windows 0;
#N canvas 0 22 450 300 (subpatch) 0;
#X array \$0-hann 4096 float 0;
#X coords 0 1 4095 0 300 100 1 0 0;
#X restore 34 312 graph;
#X obj 378 165 osc~;
#X obj 378 190 *~ -0.5;
#X obj 378 214 +~ 0.5;
#X obj 331 247 tabwrite~ \$0-hann;
#X obj 38 173 /;
#X obj 59 145 samplerate~;
#X obj 38 251 s window-sec;
#X obj 177 204 swap;
#X obj 177 228 /;
#X obj 177 252 s window-hz;
#X obj 49 201 * 1000;
#X obj 49 228 s window-msec;
#X obj 38 115 t f b f;
#X obj 155 155 s \$0-hann;
#X obj 460 5 r window-hz;
#X msg 408 136 0;
#X obj 461 33 t f b;
#X obj 38 30 loadbang;
#X obj 38 91 4096;
#N canvas 0 22 450 300 (subpatch) 0;
#X array \$0-index 4096 float 0;
#X coords 0 0 4095 2047 300 100 1 0 0;
#X restore 371 314 graph;
#X obj 242 155 s \$0-index;
#X obj 467 167 phasor~;
#X obj 467 287 tabwrite~ \$0-index;
#X msg 518 131 0;
#X obj 478 247 abs~;
#X obj 467 195 *~ 4096;
#X obj 489 223 -~ 2048;
#X msg 155 126 resize 4096;
#X connect 1 0 2 0;
#X connect 2 0 3 0;
#X connect 3 0 4 0;
#X connect 5 0 7 0;
#X connect 5 0 11 0;
#X connect 6 0 5 1;
#X connect 6 0 8 1;
#X connect 8 0 9 0;
#X connect 8 1 9 1;
#X connect 9 0 10 0;
#X connect 11 0 12 0;
#X connect 13 0 5 0;
#X connect 13 0 8 0;
#X connect 13 1 6 0;
#X connect 13 2 28 0;
#X connect 15 0 17 0;
#X connect 16 0 1 1;
#X connect 17 0 1 0;
#X connect 17 0 22 0;
#X connect 17 1 4 0;
#X connect 17 1 16 0;
#X connect 17 1 24 0;
#X connect 17 1 23 0;
#X connect 18 0 19 0;
#X connect 19 0 13 0;
#X connect 22 0 26 0;
#X connect 24 0 22 1;
#X connect 25 0 23 0;
#X connect 26 0 27 0;
#X connect 27 0 25 0;
#X connect 28 0 14 0;
#X connect 28 0 21 0;
#X restore 491 22 pd windows;
#X obj 132 39 vsl 15 128 0 0.2 0 0 empty empty empty 0 -9 0 10 -262144
-1 -1 0 1;
#X obj 67 129 adc~;
#X obj 484 145 send pdpulp_p1;
#X obj 131 -28 r threshold;
#X obj 481 87 loadbang;
#X msg 484 115 threshold \$1;
#X obj 130 0 * 0.2;
#X connect 1 0 0 0;
#X connect 1 1 0 1;
#X connect 3 0 1 2;
#X connect 4 0 1 0;
#X connect 4 1 1 1;
#X connect 6 0 9 0;
#X connect 7 0 8 0;
#X connect 8 0 5 0;
#X connect 9 0 3 0;
