#N canvas 0 25 450 300 12;
#X obj 145 45 notein;
#X obj 162 251 dac~;
#X obj 304 96 tgl 15 0 empty empty empty 17 7 0 10 -262144 -1 -1 0
1;
#X obj 304 116 s pdl;
#X obj 304 53 ctlin 64;
#X obj 304 74 == 127;
#X obj 366 59 loadbang;
#X msg 366 80 0;
#X text 304 32 SUSTAIN PEDAL;
#X obj 137 222 *~ 0.1;
#X obj 215 221 *~ 0.1;
#X obj 141 112 - 1;
#X obj 204 106 t f f;
#X obj 252 123 / 2;
#X obj 143 81 poly 16 1;
#X obj 143 190 clone piano~ 16;
#X obj 144 149 pack f f f 7700 85 0.9999;
#X connect 0 0 14 0;
#X connect 0 1 14 1;
#X connect 2 0 3 0;
#X connect 4 0 5 0;
#X connect 5 0 2 0;
#X connect 6 0 7 0;
#X connect 7 0 2 0;
#X connect 9 0 1 0;
#X connect 10 0 1 1;
#X connect 11 0 16 0;
#X connect 12 0 16 2;
#X connect 12 1 13 0;
#X connect 13 0 16 4;
#X connect 14 0 11 0;
#X connect 14 1 16 1;
#X connect 14 2 12 0;
#X connect 15 0 9 0;
#X connect 15 1 10 0;
#X connect 16 0 15 0;
