#N canvas 100 26 1340 751 12;
#X obj 172 91 notein;
#X floatatom 165 134 5 0 0 0 - - -;
#X floatatom 211 134 5 0 0 0 - - -;
#X floatatom 262 135 5 0 0 0 - - -;
#X obj 338 87 bendin;
#X floatatom 333 175 5 0 0 0 - - -;
#X floatatom 382 178 5 0 0 0 - - -;
#X obj 458 88 touchin;
#X floatatom 450 179 5 0 0 0 - - -;
#X floatatom 504 179 5 0 0 0 - - -;
#X obj 166 199 swap;
#X obj 212 165 swap;
#X floatatom 165 246 5 0 0 0 - - -;
#X floatatom 214 246 5 0 0 0 - - -;
#X floatatom 267 250 5 0 0 0 - - -;
#X obj 338 130 swap;
#X obj 457 129 swap;
#X obj 267 281 / 127;
#X obj 374 209 - 8192;
#X obj 370 240 / 170.667;
#X obj 502 209 / 127;
#X obj 163 277 - 1;
#X obj 332 204 - 1;
#X obj 449 207 - 1;
#X obj 160 448 pack f f f;
#X obj 261 439 pack f f f;
#X msg 291 407 1;
#X obj 378 442 pack f f f;
#X obj 163 312 t f f;
#X obj 481 438 pack f f f;
#X msg 409 408 2;
#X msg 511 403 3;
#X obj 479 369 t f b;
#X obj 375 373 t f b;
#X obj 257 370 t f b;
#X obj 160 378 t f b;
#X msg 189 412 0;
#X obj 1349 593 t b f;
#X obj 788 1 loadbang;
#X obj 760 98 send pdpulp_p1;
#X obj 868 100 send pdpulp_p2;
#X obj 978 97 send pdpulp_p3;
#X msg 828 51 decay;
#X msg 772 51 attack;
#X msg 875 52 LP;
#X msg 884 220 scatter;
#X msg 1023 220 formant;
#X msg 1120 221 resonance;
#X msg 950 51 legato;
#X msg 915 51 air;
#X obj 1023 296 send pdpulp_p9;
#X obj 1134 296 send pdpulp_p10;
#X obj 1099 98 send pdpulp_p4;
#X obj 1214 97 send pdpulp_p5;
#X obj 679 291 send pdpulp_p6;
#X msg 686 255 slope;
#X msg 793 243 constant;
#X obj 789 288 send pdpulp_p7;
#X obj 906 297 send pdpulp_p8;
#X obj 155 606 aux/strings-poly-touch-route 0;
#X obj 382 607 aux/strings-poly-touch-route 1;
#X obj 610 606 aux/strings-poly-touch-route 2;
#X obj 844 607 aux/strings-poly-touch-route 3;
#X obj 187 646 aux/strings-poly-touch-route 4;
#X obj 411 648 aux/strings-poly-touch-route 5;
#X obj 640 648 aux/strings-poly-touch-route 6;
#X obj 864 649 aux/strings-poly-touch-route 7;
#X obj 181 679 aux/strings-poly-touch-route 8;
#X obj 398 684 aux/strings-poly-touch-route 9;
#X obj 638 682 aux/strings-poly-touch-route 10;
#X obj 876 682 aux/strings-poly-touch-route 11;
#X obj 169 722 aux/strings-poly-touch-route 12;
#X obj 412 723 aux/strings-poly-touch-route 13;
#X obj 644 721 aux/strings-poly-touch-route 14;
#X obj 134 1052 dac~;
#X obj 172 876 loadbang;
#X obj 171 936 mtof;
#X obj 138 974 bp~ 1000 2;
#X msg 172 908 94;
#X obj 251 885 r formant;
#X obj 252 913 * 40;
#X obj 406 817 r resonance;
#X obj 415 860 * 4;
#X obj 414 889 + 1;
#X obj 252 944 + 72;
#X obj 167 768 clone aux/strings-poly-touch-aux 16;
#X obj 140 1011 *~ 0.1;
#X obj 171 519 route 0 1 2 3 4 5 6 7;
#X obj 346 519 route 8 9 10 11 12 13 14 15;
#X obj 882 721 aux/strings-poly-touch-route 15;
#X connect 0 0 1 0;
#X connect 0 1 2 0;
#X connect 0 2 3 0;
#X connect 1 0 10 0;
#X connect 2 0 11 0;
#X connect 3 0 11 1;
#X connect 4 0 15 0;
#X connect 4 1 15 1;
#X connect 5 0 22 0;
#X connect 6 0 18 0;
#X connect 7 0 16 0;
#X connect 7 1 16 1;
#X connect 8 0 23 0;
#X connect 9 0 20 0;
#X connect 10 0 12 0;
#X connect 10 1 13 0;
#X connect 11 0 10 1;
#X connect 11 1 14 0;
#X connect 12 0 21 0;
#X connect 13 0 24 2;
#X connect 14 0 17 0;
#X connect 15 0 5 0;
#X connect 15 1 6 0;
#X connect 16 0 8 0;
#X connect 16 1 9 0;
#X connect 17 0 25 2;
#X connect 18 0 19 0;
#X connect 19 0 27 2;
#X connect 20 0 29 2;
#X connect 21 0 28 0;
#X connect 22 0 33 0;
#X connect 23 0 32 0;
#X connect 24 0 87 0;
#X connect 25 0 87 0;
#X connect 26 0 25 1;
#X connect 27 0 87 0;
#X connect 28 0 35 0;
#X connect 28 1 34 0;
#X connect 29 0 87 0;
#X connect 30 0 27 1;
#X connect 31 0 29 1;
#X connect 32 0 29 0;
#X connect 32 1 31 0;
#X connect 33 0 27 0;
#X connect 33 1 30 0;
#X connect 34 0 25 0;
#X connect 34 1 26 0;
#X connect 35 0 24 0;
#X connect 35 1 36 0;
#X connect 36 0 24 1;
#X connect 38 0 43 0;
#X connect 38 0 42 0;
#X connect 38 0 44 0;
#X connect 38 0 49 0;
#X connect 38 0 48 0;
#X connect 38 0 55 0;
#X connect 38 0 45 0;
#X connect 38 0 46 0;
#X connect 38 0 47 0;
#X connect 38 0 56 0;
#X connect 42 0 40 0;
#X connect 43 0 39 0;
#X connect 44 0 41 0;
#X connect 45 0 58 0;
#X connect 46 0 50 0;
#X connect 47 0 51 0;
#X connect 48 0 53 0;
#X connect 49 0 52 0;
#X connect 55 0 54 0;
#X connect 56 0 57 0;
#X connect 59 0 85 0;
#X connect 60 0 85 0;
#X connect 61 0 85 0;
#X connect 62 0 85 0;
#X connect 63 0 85 0;
#X connect 64 0 85 0;
#X connect 65 0 85 0;
#X connect 66 0 85 0;
#X connect 67 0 85 0;
#X connect 68 0 85 0;
#X connect 69 0 85 0;
#X connect 70 0 85 0;
#X connect 71 0 85 0;
#X connect 72 0 85 0;
#X connect 73 0 85 0;
#X connect 75 0 78 0;
#X connect 76 0 77 1;
#X connect 77 0 86 0;
#X connect 78 0 76 0;
#X connect 79 0 80 0;
#X connect 80 0 84 0;
#X connect 81 0 82 0;
#X connect 82 0 83 0;
#X connect 83 0 77 2;
#X connect 84 0 76 0;
#X connect 85 0 77 0;
#X connect 86 0 74 0;
#X connect 86 0 74 1;
#X connect 87 0 59 0;
#X connect 87 1 60 0;
#X connect 87 2 61 0;
#X connect 87 3 62 0;
#X connect 87 4 63 0;
#X connect 87 5 64 0;
#X connect 87 6 65 0;
#X connect 87 7 66 0;
#X connect 87 8 88 0;
#X connect 88 0 67 0;
#X connect 88 1 68 0;
#X connect 88 2 69 0;
#X connect 88 3 70 0;
#X connect 88 4 71 0;
#X connect 88 5 72 0;
#X connect 88 6 73 0;
#X connect 88 7 89 0;
#X connect 89 0 85 0;
