#N canvas 108 40 1317 537 12;
#X obj 132 502 dac~;
#X obj 170 326 loadbang;
#X obj 169 386 mtof;
#X obj 136 424 bp~ 1000 2;
#X msg 170 358 94;
#X obj 758 90 loadbang;
#X obj 730 187 send pdpulp_p1;
#X obj 838 189 send pdpulp_p2;
#X obj 948 186 send pdpulp_p3;
#X obj 183 101 * 1000;
#X obj 261 87 * 1000;
#X obj 263 56 r decay;
#X msg 798 140 decay;
#X obj 189 70 r attack;
#X msg 742 140 attack;
#X msg 845 141 LP;
#X obj 645 156 * 2;
#X obj 645 183 - 1;
#X msg 854 309 scatter;
#X obj 644 124 r scatter;
#X msg 993 309 formant;
#X msg 1090 310 resonance;
#X obj 249 335 r formant;
#X obj 250 363 * 40;
#X obj 404 267 r resonance;
#X obj 413 310 * 4;
#X obj 412 339 + 1;
#X obj 250 394 + 72;
#X obj 463 48 r legato;
#X msg 920 140 legato;
#X msg 885 140 air;
#X obj 403 38 r air;
#X obj 993 385 send pdpulp_p9;
#X obj 1104 385 send pdpulp_p10;
#X obj 135 195 / 127;
#X obj 48 194 - 1;
#X obj 64 149 poly 16 0;
#X obj 69 113 notein;
#X obj 83 250 pack f f f f f f f f f f f;
#X obj 397 66 * 0.05;
#X obj 401 92 + 0.95;
#X obj 88 297 clone aux/strings-poly-aux 16;
#X obj 339 45 r LP;
#X obj 334 122 mtof;
#X obj 335 71 * 80;
#X obj 335 96 + 45;
#X obj 1069 187 send pdpulp_p4;
#X obj 1184 186 send pdpulp_p5;
#X obj 649 380 send pdpulp_p6;
#X msg 656 344 slope;
#X msg 763 332 constant;
#X obj 759 377 send pdpulp_p7;
#X obj 876 386 send pdpulp_p8;
#X obj 344 159 r slope;
#X obj 344 184 expr (pow(2 \, $f1*10)-1)/8;
#X obj 536 157 r constant;
#X obj 532 186 * 8000;
#X obj 138 461 *~ 0.5;
#X connect 1 0 4 0;
#X connect 2 0 3 1;
#X connect 3 0 57 0;
#X connect 4 0 2 0;
#X connect 5 0 14 0;
#X connect 5 0 12 0;
#X connect 5 0 15 0;
#X connect 5 0 30 0;
#X connect 5 0 29 0;
#X connect 5 0 49 0;
#X connect 5 0 18 0;
#X connect 5 0 20 0;
#X connect 5 0 21 0;
#X connect 5 0 50 0;
#X connect 9 0 38 3;
#X connect 10 0 38 4;
#X connect 11 0 10 0;
#X connect 12 0 7 0;
#X connect 13 0 9 0;
#X connect 14 0 6 0;
#X connect 15 0 8 0;
#X connect 16 0 17 0;
#X connect 17 0 38 10;
#X connect 18 0 52 0;
#X connect 19 0 16 0;
#X connect 20 0 32 0;
#X connect 21 0 33 0;
#X connect 22 0 23 0;
#X connect 23 0 27 0;
#X connect 24 0 25 0;
#X connect 25 0 26 0;
#X connect 26 0 3 2;
#X connect 27 0 2 0;
#X connect 28 0 38 7;
#X connect 29 0 47 0;
#X connect 30 0 46 0;
#X connect 31 0 39 0;
#X connect 34 0 38 2;
#X connect 35 0 38 0;
#X connect 36 0 35 0;
#X connect 36 1 38 1;
#X connect 36 2 34 0;
#X connect 37 0 36 0;
#X connect 37 1 36 1;
#X connect 38 0 41 0;
#X connect 39 0 40 0;
#X connect 40 0 38 6;
#X connect 41 0 3 0;
#X connect 42 0 44 0;
#X connect 43 0 38 5;
#X connect 44 0 45 0;
#X connect 45 0 43 0;
#X connect 49 0 48 0;
#X connect 50 0 51 0;
#X connect 53 0 54 0;
#X connect 54 0 38 8;
#X connect 55 0 56 0;
#X connect 56 0 38 9;
#X connect 57 0 0 0;
#X connect 57 0 0 1;
